<svg viewBox="0 0 20 20" xmlns="http://www.w3.org/2000/svg"><path d="m2 12c0 1.5913.63214 3.1174 1.75736 4.2426s2.65134 1.7574 4.24264 1.7574h9c.2652 0 .5196-.1054.7071-.2929s.2929-.4419.2929-.7071-.1054-.5196-.2929-.7071c-.1875-.1876-.4419-.2929-.7071-.2929h-9c-1.06087 0-2.07828-.4214-2.82843-1.1716-.75014-.7501-1.17157-1.7675-1.17157-2.8284s.42143-2.07829 1.17157-2.82844c.75015-.75014 1.76756-1.17157 2.82843-1.17157h6.526l-2.233 2.29301c-.1822.1886-.283.4412-.2807.7034s.1075.513.2929.6984.4362.2906.6984.2929c.2622.0022.5148-.0986.7034-.2807l4-4.00001c.1875-.18753.2928-.44184.2928-.707s-.1053-.51947-.2928-.707l-4-4c-.0922-.09551-.2026-.17169-.3246-.2241s-.2532-.08-.386-.08115-.2645.02415-.3874.07443-.2345.12453-.3284.21842c-.0939.0939-.1681.20555-.2184.32845-.0503.12289-.0756.25457-.0745.38735.0012.13278.0288.264.0812.386.0524.12201.1286.23235.2241.3246l2.233 2.293h-6.526c-1.5913 0-3.11742.63214-4.24264 1.75736s-1.75736 2.65135-1.75736 4.24265z" fill="#5c5f62"/></svg>